<svg xmlns="http://www.w3.org/2000/svg" xmlns:xlink="http://www.w3.org/1999/xlink" width="500" zoomAndPan="magnify" viewBox="0 0 375 374.999991" height="500" preserveAspectRatio="xMidYMid meet" version="1.0"><defs><clipPath id="1d8603bfe4"><path d="M 27 24.449219 L 337 24.449219 L 337 350.699219 L 27 350.699219 Z M 27 24.449219 " clip-rule="nonzero"/></clipPath><clipPath id="302a04f420"><path d="M 205.285156 176.375 L 66.609375 176.375 C 61.230469 176.375 57.335938 171.242188 58.789062 166.0625 L 96.863281 30.382812 C 97.84375 26.878906 101.039062 24.457031 104.679688 24.457031 L 243.355469 24.457031 C 248.734375 24.457031 252.625 29.589844 251.171875 34.769531 L 213.101562 170.449219 C 212.117188 173.953125 208.921875 176.375 205.285156 176.375 Z M 115.210938 278.789062 L 134.8125 208.929688 C 136.265625 203.75 132.375 198.617188 126.996094 198.617188 L 55.710938 198.617188 C 52.070312 198.617188 48.878906 201.039062 47.894531 204.542969 L 28.292969 274.402344 C 26.839844 279.582031 30.730469 284.714844 36.109375 284.714844 L 107.394531 284.714844 C 111.035156 284.714844 114.230469 282.292969 115.210938 278.789062 Z M 151.285156 204.542969 L 113.214844 340.222656 C 111.761719 345.402344 115.652344 350.535156 121.03125 350.535156 L 259.707031 350.535156 C 263.34375 350.535156 266.539062 348.113281 267.523438 344.609375 L 305.59375 208.929688 C 307.046875 203.75 303.15625 198.617188 297.777344 198.617188 L 159.101562 198.617188 C 155.464844 198.617188 152.269531 201.039062 151.285156 204.542969 Z M 249.175781 96.203125 L 229.570312 166.0625 C 228.117188 171.242188 232.011719 176.375 237.386719 176.375 L 308.675781 176.375 C 312.3125 176.375 315.507812 173.953125 316.492188 170.449219 L 336.09375 100.589844 C 337.546875 95.410156 333.65625 90.277344 328.277344 90.277344 L 256.992188 90.277344 C 253.351562 90.277344 250.15625 92.699219 249.175781 96.203125 Z M 249.175781 96.203125 " clip-rule="nonzero"/></clipPath></defs><g clip-path="url(#1d8603bfe4)"><g clip-path="url(#302a04f420)"><path fill="#ffffff" d="M 26.839844 24.457031 L 26.839844 350.535156 L 337.308594 350.535156 L 337.308594 24.457031 Z M 26.839844 24.457031 " fill-opacity="1" fill-rule="nonzero"/></g></g></svg>