<svg xmlns="http://www.w3.org/2000/svg" width="24" height="24" viewBox="0 0 24 24" fill="none">
  <path d="M8.5 5.5c-2.5 0-4.5 2-4.5 4.5 0 1.7 1 3.2 2.5 4v1.5c0 .6.4 1 1 1h1" stroke="#0284c7" stroke-width="1.6" stroke-linecap="round"/>
  <path d="M15.5 5.5c2.5 0 4.5 2 4.5 4.5 0 1.7-1 3.2-2.5 4v1.5c0 .6-.4 1-1 1h-1" stroke="#0284c7" stroke-width="1.6" stroke-linecap="round"/>
  <path d="M8 9.5c.6-1 1.8-1.7 3-1.7s2.4.7 3 1.7" stroke="#38bdf8" stroke-width="1.6" stroke-linecap="round"/>
  <path d="M8 12.5c.7.9 1.9 1.5 3 1.5s2.3-.6 3-1.5" stroke="#38bdf8" stroke-width="1.6" stroke-linecap="round"/>
  <circle cx="12" cy="9" r="0.8" fill="#38bdf8"/>
  <circle cx="12" cy="13" r="0.8" fill="#38bdf8"/>
</svg>